<svg id="Ebene_1" data-name="Ebene 1" xmlns="http://www.w3.org/2000/svg" width="72" height="72" viewBox="0 0 72 72"><defs><style>.cls-1{fill:red;}</style></defs><g id="PageItem501"><path class="cls-1" d="M28.6,24.1a2.84,2.84,0,0,0,.8,1.1,4.44,4.44,0,0,0,1.1.8,3.19,3.19,0,0,0,1.4.3,3.53,3.53,0,0,0,1.4-.3,2.84,2.84,0,0,0,1.1-.8,4.44,4.44,0,0,0,.8-1.1,3.19,3.19,0,0,0,.3-1.4,3.53,3.53,0,0,0-.3-1.4,2.84,2.84,0,0,0-.8-1.1,4.44,4.44,0,0,0-1.1-.8,3.42,3.42,0,0,0-2.8,0,2.84,2.84,0,0,0-1.1.8,4.44,4.44,0,0,0-.8,1.1,3.42,3.42,0,0,0,0,2.8ZM21.5,44.7a2.84,2.84,0,0,0,.8,1.1,4.44,4.44,0,0,0,1.1.8,3.19,3.19,0,0,0,1.4.3H39a3.53,3.53,0,0,0,1.4-.3,2.84,2.84,0,0,0,1.1-.8,4.44,4.44,0,0,0,.8-1.1,3.19,3.19,0,0,0,.3-1.4V35.5H26.2V33.4H42.5V32a3.53,3.53,0,0,0-.3-1.4,2.84,2.84,0,0,0-.8-1.1,4.44,4.44,0,0,0-1.1-.8,3.19,3.19,0,0,0-1.4-.3H24.8a3.53,3.53,0,0,0-1.4.3,2.84,2.84,0,0,0-1.1.8,4.44,4.44,0,0,0-.8,1.1,3.19,3.19,0,0,0-.3,1.4v7.8H37.5v2.1H21.3v1.4A6.75,6.75,0,0,0,21.5,44.7Z"/></g></svg>